<svg class="svg-icon" style="width: 1em; height: 1em;vertical-align: middle;fill: currentColor;overflow: hidden;"
     viewBox="0 0 1024 1024" version="1.1" xmlns="http://www.w3.org/2000/svg">
    <path d="M58.88 36.352v955.392h806.912V36.352H58.88zM797.184 923.136H127.488V104.96h669.696V923.136z"
          fill="#ffffff"/>
    <path d="M193.024 549.376h528.384v37.888H193.024zM193.024 644.096h218.624v37.888h-218.624zM457.216 651.776v208.896h264.192V644.608h-264.192v7.168z m226.304 169.984h-188.416V682.496h188.416v139.264zM193.024 727.04h218.624v37.888h-218.624zM193.024 821.76h218.624v37.888h-218.624zM193.024 184.832h528.384v37.888H193.024zM193.024 279.04h528.384v37.888H193.024zM193.024 361.984h528.384v37.888H193.024zM193.024 456.704h528.384v37.888H193.024z"
          fill="#ffffff"/>
</svg>
